<svg xmlns="http://www.w3.org/2000/svg" viewBox="0 0 201.02 108.65"><defs><style>.cls-1{fill:#d36a2b;}.cls-2{fill:#020202;}.cls-3{fill:#391e12;}</style></defs><g id="Layer_2" data-name="Layer 2"><g id="Layer_1-2" data-name="Layer 1"><path class="cls-1" d="M110,47.91s.08.48-2,.52c0,0-1.66,0-2-.47L93.94,10.12a.5.5,0,0,0-.93-.06L63.4,74.69s.14.71-3.72.78c0,0-3.46,0-3.75-.78L89.73.49S90,.05,92.29,0h0s2.45,0,2.56.53h0Z"/><path class="cls-1" d="M77.07.08s3.59.06,3.71.82l-34,74.17s-.18.44-2.25.44c0,0-2,0-2.24-.43L8.24.9S8,.17,12,.06c0,0,3.44,0,3.94.71L44.09,62.55a.5.5,0,0,0,.91,0L73.1.83S73.37.11,77.07.08Z"/><path class="cls-1" d="M92.14,27.6s-.07-.48,2-.52c0,0,1.66,0,2,.47l12.13,37.84a.5.5,0,0,0,.93.06L138.76.82s-.14-.71,3.72-.78c0,0,3.46,0,3.75.78L112.43,75s-.28.44-2.56.47h0s-2.45,0-2.56-.53h0Z"/><path class="cls-1" d="M125.1,75.43s-3.6-.06-3.72-.82L155.4.44s.18-.44,2.25-.44c0,0,2,0,2.24.43l34,74.18s.25.73-3.72.84c0,0-3.44,0-3.94-.71L158.08,13a.5.5,0,0,0-.91,0L129.06,74.68S128.79,75.4,125.1,75.43Z"/><path class="cls-2" d="M15.12,103.19c0-3.49,2.17-5.5,4.68-5.5s4.68,2,4.68,5.5-2.17,5.46-4.68,5.46-4.68-2-4.68-5.46m8.35,0c0-2.74-1.56-4.65-3.67-4.65s-3.67,1.91-3.67,4.65,1.56,4.6,3.67,4.6,3.67-1.86,3.67-4.6"/><path class="cls-2" d="M37.58,103.19c0-3.49,2.18-5.5,4.68-5.5s4.69,2,4.69,5.5-2.18,5.46-4.69,5.46-4.68-2-4.68-5.46m8.36,0c0-2.74-1.57-4.65-3.68-4.65s-3.67,1.91-3.67,4.65,1.56,4.6,3.67,4.6,3.68-1.86,3.68-4.6"/><polygon class="cls-2" points="60.9 92.76 61.85 92.76 61.85 104.27 61.9 104.27 67.04 97.95 68.15 97.95 64.75 102.08 68.72 108.38 67.65 108.38 64.19 102.8 61.85 105.54 61.85 108.38 60.9 108.38 60.9 92.76"/><path class="cls-2" d="M96.64,94.58a.88.88,0,0,1,1.75,0,.88.88,0,0,1-1.75,0M97,98h1v10.43H97Z"/><path class="cls-2" d="M133.94,107.2l.55-.7a4.83,4.83,0,0,0,3.32,1.32c1.64,0,2.49-1,2.49-2.06,0-1.3-1.35-1.88-2.55-2.31-1.58-.56-3.33-1.2-3.33-3,0-1.5,1.19-2.78,3.36-2.78a4.94,4.94,0,0,1,3,1.08l-.51.69a4,4,0,0,0-2.49-.95c-1.63,0-2.36.94-2.36,1.9,0,1.19,1.22,1.64,2.47,2.11,1.61.62,3.4,1.15,3.4,3.18,0,1.57-1.25,3-3.51,3a6,6,0,0,1-3.82-1.45"/><path class="cls-2" d="M154.5,94.58a.88.88,0,0,1,1.75,0,.88.88,0,0,1-1.75,0m.38,3.37h1v10.43h-1Z"/><path class="cls-2" d="M169.83,103.19c0-3.37,2.13-5.5,4.63-5.5A4.81,4.81,0,0,1,177.6,99l0-1.92v-4.3h1v15.62h-.81l-.11-1.35h-.05a4.87,4.87,0,0,1-3.4,1.62c-2.62,0-4.31-2-4.31-5.46m7.72,2.88V99.88a4.41,4.41,0,0,0-3.05-1.33c-2.06,0-3.66,2-3.66,4.64s1.23,4.6,3.44,4.6a4.64,4.64,0,0,0,3.27-1.72"/><path class="cls-2" d="M192.48,103.19c0-3.4,2.21-5.49,4.54-5.49s4,1.75,4,4.82a5.11,5.11,0,0,1-.05.78h-7.5c0,2.63,1.57,4.51,3.92,4.51a4.69,4.69,0,0,0,2.8-.92l.4.73a5.73,5.73,0,0,1-3.29,1c-2.66,0-4.82-2-4.82-5.45m7.63-.68c0-2.66-1.2-4-3.08-4s-3.35,1.5-3.57,4Z"/><path class="cls-2" d="M0,107V92.76H1v14.35c0,.47.19.68.45.68a1.76,1.76,0,0,0,.39,0l.16.79a2.35,2.35,0,0,1-.69.1C.43,108.64,0,108.13,0,107"/><path class="cls-2" d="M112.84,98h.81l.1,1.62h0a5.11,5.11,0,0,1,3.59-1.88c2.15,0,3.15,1.31,3.15,4v6.69h-1v-6.56c0-2.21-.69-3.26-2.37-3.26-1.24,0-2.14.65-3.41,2v7.86h-1Z"/><polygon class="cls-3" points="42.3 75.19 42.31 75.2 42.31 75.19 42.3 75.19"/><polygon class="cls-3" points="46.67 75.19 46.66 75.2 46.67 75.19 46.67 75.19"/></g></g></svg>